<?xml version="1.0" encoding="UTF-8"?>
<!DOCTYPE svg PUBLIC "-//W3C//DTD SVG 1.1//EN" "http://www.w3.org/Graphics/SVG/1.1/DTD/svg11.dtd">
<!-- Creator: CorelDRAW 2020 (64-Bit) -->
<svg xmlns="http://www.w3.org/2000/svg" xml:space="preserve" width="41.181mm" height="10.1705mm" version="1.1" style="shape-rendering:geometricPrecision; text-rendering:geometricPrecision; image-rendering:optimizeQuality; fill-rule:evenodd; clip-rule:evenodd"
viewBox="0 0 223.96 55.31"
 xmlns:xlink="http://www.w3.org/1999/xlink"
 xmlns:xodm="http://www.corel.com/coreldraw/odm/2003">
 <defs>
  <style type="text/css">
   <![CDATA[
    .fil2 {fill:#341670}
    .fil1 {fill:#471F99}
    .fil0 {fill:white;fill-rule:nonzero}
   ]]>
  </style>
 </defs>
 <g id="Layer_x0020_1">
  <metadata id="CorelCorpID_0Corel-Layer"/>
  <g id="_2553849770528">
   <path class="fil0" d="M66.79 32.41l0 -15.52 3.19 0 0 15.49c0,0.79 0.29,1.46 0.86,2.02 0.58,0.55 1.27,0.83 2.08,0.83l5.28 0c0.81,0 1.5,-0.28 2.08,-0.83 0.57,-0.56 0.86,-1.23 0.86,-2.02l0 -15.49 3.18 0 0 15.52c0,1.65 -0.6,3.07 -1.79,4.25 -1.2,1.17 -2.64,1.76 -4.33,1.76l-5.28 0c-1.7,0 -3.14,-0.59 -4.34,-1.76 -1.19,-1.18 -1.79,-2.59 -1.79,-4.25zm21.17 6.01l0 -11.3c0,-1.21 0.44,-2.24 1.32,-3.1 0.88,-0.86 1.94,-1.29 3.19,-1.29l3.49 0 0 3.18 -3.49 0c-0.37,0 -0.68,0.12 -0.94,0.37 -0.25,0.25 -0.38,0.55 -0.38,0.9l0 11.24 -3.19 0zm10.73 -3.19l0 -18.34 3.19 0 0 18.34 5.56 0c0.68,0 1.27,-0.24 1.75,-0.72 0.48,-0.48 0.72,-1.06 0.72,-1.75l0 -4.33c0,-0.68 -0.24,-1.27 -0.72,-1.76 -0.49,-0.49 -1.06,-0.73 -1.74,-0.73l-3.74 0 0 -3.19 3.74 0c1.55,0 2.88,0.55 4,1.66 1.11,1.11 1.66,2.44 1.66,4l0 4.39c0,1.56 -0.55,2.88 -1.65,3.98 -1.11,1.1 -2.45,1.65 -4.01,1.65l-5.56 0c-0.87,0 -1.63,-0.32 -2.25,-0.94 -0.63,-0.63 -0.94,-1.37 -0.94,-2.25zm17.9 -2.47l0 -4.39c0,-1.56 0.55,-2.88 1.66,-3.98 1.11,-1.1 2.44,-1.65 4.01,-1.65l8.75 0 0 15.69 -3.19 0 0 -12.49 -5.56 0c-0.69,0 -1.27,0.24 -1.75,0.72 -0.48,0.48 -0.72,1.06 -0.72,1.75l0 4.33c0,0.69 0.24,1.28 0.73,1.77 0.49,0.49 1.06,0.73 1.74,0.73l3.74 0 0 3.19 -3.74 0c-1.56,0 -2.89,-0.55 -4,-1.66 -1.11,-1.11 -1.67,-2.44 -1.67,-4zm18.05 5.66l0 -12.51c0,-0.88 0.32,-1.63 0.95,-2.25 0.63,-0.62 1.39,-0.93 2.28,-0.93l5.52 0c1.56,0 2.89,0.55 4,1.66 1.11,1.11 1.67,2.44 1.67,4l0 10.03 -3.2 0 0 -9.98c0,-0.7 -0.24,-1.31 -0.72,-1.8 -0.48,-0.5 -1.06,-0.74 -1.75,-0.74l-5.56 0 0 12.52 -3.19 0zm18.05 -5.95l0 -9.53c0,-1.67 0.6,-3.11 1.8,-4.28 1.2,-1.18 2.65,-1.77 4.35,-1.77l11.28 0 0 3.18 -11.28 0c-0.82,0 -1.51,0.28 -2.09,0.84 -0.58,0.56 -0.86,1.24 -0.86,2.04l0 9.48c0,0.77 0.28,1.44 0.86,1.98 0.57,0.54 1.27,0.82 2.09,0.82l11.28 0 0 3.19 -11.28 0c-1.7,0 -3.14,-0.58 -4.35,-1.74 -1.2,-1.16 -1.8,-2.56 -1.8,-4.21zm20.91 0.28l0 -10.02 3.19 0 0 9.98c0,0.7 0.24,1.3 0.72,1.8 0.48,0.5 1.06,0.74 1.75,0.74l5.56 0 0 -12.52 3.2 0 0 12.51c0,0.88 -0.32,1.63 -0.95,2.25 -0.64,0.62 -1.39,0.93 -2.28,0.93l-5.53 0c-1.55,0 -2.88,-0.55 -4,-1.66 -1.11,-1.11 -1.66,-2.44 -1.66,-4zm17.89 2.47l0 -18.34 3.19 0 0 18.34 5.56 0c0.68,0 1.27,-0.24 1.75,-0.72 0.48,-0.48 0.72,-1.06 0.72,-1.75l0 -4.33c0,-0.68 -0.24,-1.27 -0.72,-1.76 -0.49,-0.49 -1.06,-0.73 -1.74,-0.73l-3.74 0 0 -3.19 3.74 0c1.55,0 2.88,0.55 4,1.66 1.11,1.11 1.66,2.44 1.66,4l0 4.39c0,1.56 -0.55,2.88 -1.65,3.98 -1.11,1.1 -2.45,1.65 -4.01,1.65l-5.56 0c-0.87,0 -1.63,-0.32 -2.25,-0.94 -0.63,-0.63 -0.94,-1.37 -0.94,-2.25zm18.05 -1.23l0 -8.03c0,-0.9 0.33,-1.66 0.98,-2.29 0.66,-0.63 1.44,-0.95 2.36,-0.95l6.54 0c1.25,0 2.32,0.44 3.2,1.33 0.88,0.89 1.33,1.96 1.33,3.23l0 0.44c0,1.24 -0.44,2.3 -1.33,3.18 -0.88,0.88 -1.95,1.33 -3.2,1.33l-4.88 0 0 -3.18 4.91 0c0.36,0 0.67,-0.13 0.93,-0.39 0.26,-0.26 0.38,-0.58 0.38,-0.95l0 -0.42c0,-0.38 -0.12,-0.7 -0.38,-0.96 -0.26,-0.27 -0.57,-0.4 -0.93,-0.4l-6.72 0 0 8.06c0,0.34 0.11,0.64 0.35,0.87 0.23,0.24 0.52,0.37 0.85,0.37l8.92 0 0 3.19 -8.92 0c-1.21,0 -2.24,-0.43 -3.1,-1.3 -0.86,-0.86 -1.29,-1.9 -1.29,-3.12z"/>
   <polygon class="fil1" points="51.19,13.83 46.92,16.13 42.66,18.44 38.39,16.13 34.13,13.83 29.86,11.52 25.59,9.22 21.33,11.52 17.06,13.83 12.8,16.13 8.53,18.44 4.27,16.13 -0,13.83 4.27,11.52 8.53,9.22 12.8,6.91 17.06,4.61 21.33,2.3 25.59,0 29.86,2.3 34.13,4.61 38.39,6.91 42.66,9.22 46.92,11.52 "/>
   <polygon class="fil2" points="8.53,18.44 4.27,16.13 -0,13.83 -0,23.05 -0,32.27 -0,41.48 4.27,43.79 8.53,46.09 12.8,48.4 17.06,50.7 21.33,53.01 25.59,55.31 29.86,53.01 34.13,50.7 38.39,48.4 42.66,46.09 46.92,43.79 51.19,41.48 51.17,32.43 46.91,34.73 42.64,37.04 38.38,39.34 34.11,41.65 29.85,43.95 25.58,46.26 25.58,37.04 29.85,34.73 34.11,32.43 38.38,30.12 51.19,22.88 51.19,13.83 46.92,16.13 42.66,18.44 38.39,20.74 34.13,23.05 29.86,25.35 25.59,27.66 21.33,25.35 17.06,23.05 12.8,20.74 "/>
  </g>
 </g>
</svg>
