<?xml version="1.0" encoding="UTF-8"?>
<!DOCTYPE svg PUBLIC "-//W3C//DTD SVG 1.1//EN" "http://www.w3.org/Graphics/SVG/1.1/DTD/svg11.dtd">
<!-- Creator: CorelDRAW 2020 (64-Bit) -->
<svg xmlns="http://www.w3.org/2000/svg" xml:space="preserve" width="41.181mm" height="10.1705mm" version="1.1" style="shape-rendering:geometricPrecision; text-rendering:geometricPrecision; image-rendering:optimizeQuality; fill-rule:evenodd; clip-rule:evenodd"
viewBox="0 0 456.32 112.7"
 xmlns:xlink="http://www.w3.org/1999/xlink"
 xmlns:xodm="http://www.corel.com/coreldraw/odm/2003">
 <defs>
  <style type="text/css">
   <![CDATA[
    .fil1 {fill:white}
    .fil0 {fill:white;fill-rule:nonzero}
   ]]>
  </style>
 </defs>
 <g id="Layer_x0020_1">
  <metadata id="CorelCorpID_0Corel-Layer"/>
  <g id="_2553956621760">
   <path class="fil0" d="M136.08 66.04l0 -31.62 6.51 0 0 31.56c0,1.6 0.59,2.97 1.76,4.11 1.18,1.13 2.58,1.7 4.23,1.7l10.76 0c1.64,0 3.05,-0.57 4.23,-1.7 1.17,-1.14 1.76,-2.51 1.76,-4.11l0 -31.56 6.48 0 0 31.62c0,3.37 -1.22,6.26 -3.65,8.66 -2.44,2.39 -5.38,3.59 -8.81,3.59l-10.76 0c-3.45,0 -6.4,-1.2 -8.85,-3.59 -2.43,-2.4 -3.65,-5.29 -3.65,-8.66zm43.13 12.25l0 -23.02c0,-2.46 0.9,-4.57 2.7,-6.32 1.8,-1.75 3.96,-2.62 6.5,-2.62l7.12 0 0 6.48 -7.12 0c-0.75,0 -1.38,0.25 -1.91,0.76 -0.52,0.51 -0.78,1.12 -0.78,1.83l0 22.89 -6.51 0zm21.86 -6.51l0 -37.36 6.51 0 0 37.36 11.33 0c1.39,0 2.58,-0.5 3.56,-1.46 0.98,-0.98 1.46,-2.17 1.46,-3.57l0 -8.82c0,-1.39 -0.5,-2.59 -1.47,-3.59 -0.99,-1 -2.17,-1.49 -3.55,-1.49l-7.62 0 0 -6.51 7.62 0c3.16,0 5.88,1.13 8.14,3.39 2.26,2.26 3.39,4.98 3.39,8.14l0 8.95c0,3.17 -1.13,5.88 -3.37,8.12 -2.25,2.24 -4.98,3.36 -8.16,3.36l-11.33 0c-1.78,0 -3.32,-0.64 -4.59,-1.92 -1.27,-1.27 -1.92,-2.8 -1.92,-4.59zm36.47 -5.03l0 -8.94c0,-3.17 1.13,-5.88 3.38,-8.12 2.25,-2.24 4.97,-3.36 8.16,-3.36l17.83 0 0 31.96 -6.51 0 0 -25.45 -11.32 0c-1.4,0 -2.59,0.48 -3.56,1.46 -0.98,0.98 -1.47,2.17 -1.47,3.56l0 8.82c0,1.4 0.5,2.6 1.48,3.6 0.99,0.99 2.17,1.5 3.55,1.5l7.62 0 0 6.51 -7.62 0c-3.17,0 -5.89,-1.13 -8.14,-3.39 -2.26,-2.26 -3.4,-4.98 -3.4,-8.15zm36.78 11.54l0 -25.48c0,-1.79 0.64,-3.32 1.93,-4.58 1.29,-1.26 2.83,-1.9 4.65,-1.9l11.26 0c3.17,0 5.89,1.13 8.14,3.39 2.26,2.26 3.4,4.98 3.4,8.14l0 20.43 -6.52 0 0 -20.34c0,-1.43 -0.48,-2.66 -1.46,-3.66 -0.97,-1.01 -2.16,-1.52 -3.56,-1.52l-11.32 0 0 25.52 -6.51 0zm36.77 -12.12l0 -19.41c0,-3.41 1.22,-6.33 3.67,-8.73 2.45,-2.41 5.4,-3.61 8.86,-3.61l22.99 0 0 6.48 -22.99 0c-1.66,0 -3.08,0.57 -4.25,1.72 -1.18,1.14 -1.76,2.53 -1.76,4.15l0 19.31c0,1.58 0.58,2.93 1.76,4.04 1.17,1.11 2.59,1.66 4.25,1.66l22.99 0 0 6.51 -22.99 0c-3.45,0 -6.4,-1.18 -8.86,-3.55 -2.44,-2.37 -3.67,-5.22 -3.67,-8.57zm42.61 0.58l0 -20.42 6.51 0 0 20.34c0,1.43 0.48,2.65 1.46,3.66 0.98,1.01 2.17,1.52 3.56,1.52l11.32 0 0 -25.52 6.52 0 0 25.48c0,1.79 -0.64,3.32 -1.93,4.58 -1.3,1.26 -2.83,1.9 -4.64,1.9l-11.27 0c-3.16,0 -5.88,-1.13 -8.14,-3.39 -2.26,-2.26 -3.39,-4.98 -3.39,-8.15zm36.46 5.03l0 -37.36 6.51 0 0 37.36 11.33 0c1.39,0 2.58,-0.5 3.56,-1.46 0.98,-0.98 1.46,-2.17 1.46,-3.57l0 -8.82c0,-1.39 -0.5,-2.59 -1.47,-3.59 -0.99,-1 -2.17,-1.49 -3.55,-1.49l-7.62 0 0 -6.51 7.62 0c3.16,0 5.88,1.13 8.14,3.39 2.26,2.26 3.39,4.98 3.39,8.14l0 8.95c0,3.17 -1.13,5.88 -3.37,8.12 -2.25,2.24 -4.98,3.36 -8.16,3.36l-11.33 0c-1.78,0 -3.32,-0.64 -4.59,-1.92 -1.27,-1.27 -1.92,-2.8 -1.92,-4.59zm36.78 -2.5l0 -16.35c0,-1.83 0.66,-3.39 2,-4.68 1.34,-1.29 2.94,-1.93 4.81,-1.93l13.33 0c2.55,0 4.72,0.91 6.52,2.72 1.8,1.81 2.71,4 2.71,6.57l0 0.89c0,2.53 -0.91,4.69 -2.71,6.49 -1.8,1.8 -3.97,2.71 -6.52,2.71l-9.94 0 0 -6.49 10 0c0.74,0 1.37,-0.26 1.89,-0.8 0.53,-0.54 0.78,-1.18 0.78,-1.94l0 -0.86c0,-0.77 -0.25,-1.42 -0.78,-1.96 -0.53,-0.55 -1.16,-0.82 -1.89,-0.82l-13.7 0 0 16.42c0,0.69 0.23,1.3 0.7,1.78 0.47,0.5 1.05,0.75 1.73,0.75l18.18 0 0 6.51 -18.18 0c-2.46,0 -4.57,-0.88 -6.32,-2.64 -1.75,-1.76 -2.62,-3.88 -2.62,-6.36z"/>
   <polygon class="fil1" points="104.3,28.17 95.61,32.87 86.92,37.57 78.22,32.87 69.53,28.17 60.84,23.48 52.15,18.78 43.46,23.48 34.77,28.17 26.07,32.87 17.38,37.57 8.69,32.87 -0,28.17 8.69,23.48 17.38,18.78 26.07,14.09 34.77,9.39 43.46,4.7 52.15,0 60.84,4.7 69.53,9.39 78.22,14.09 86.92,18.78 95.61,23.48 "/>
   <polygon class="fil1" points="17.38,37.57 8.69,32.87 -0,28.17 -0,46.96 -0,65.74 -0,84.52 8.69,89.22 17.38,93.92 26.07,98.61 34.77,103.31 43.46,108 52.15,112.7 60.84,108 69.53,103.31 78.22,98.61 86.92,93.92 95.61,89.22 104.3,84.52 104.27,66.07 95.58,70.77 86.89,75.46 78.19,80.16 69.5,84.85 60.81,89.55 52.12,94.25 52.12,75.46 60.81,70.77 69.5,66.07 78.19,61.38 104.3,46.63 104.3,28.18 95.61,32.87 86.92,37.57 78.22,42.26 69.53,46.96 60.84,51.65 52.15,56.35 43.46,51.65 34.77,46.96 26.07,42.26 "/>
  </g>
 </g>
</svg>
