<?xml version="1.0" encoding="UTF-8"?>
<!DOCTYPE svg PUBLIC "-//W3C//DTD SVG 1.1//EN" "http://www.w3.org/Graphics/SVG/1.1/DTD/svg11.dtd">
<!-- Creator: CorelDRAW 2020 (64-Bit) -->
<svg xmlns="http://www.w3.org/2000/svg" xml:space="preserve" width="36.4617mm" height="39.3978mm" version="1.1" style="shape-rendering:geometricPrecision; text-rendering:geometricPrecision; image-rendering:optimizeQuality; fill-rule:evenodd; clip-rule:evenodd"
viewBox="0 0 233.59 252.4"
 xmlns:xlink="http://www.w3.org/1999/xlink"
 xmlns:xodm="http://www.corel.com/coreldraw/odm/2003">
 <defs>
  <style type="text/css">
   <![CDATA[
    .fil0 {fill:#EC8500}
    .fil1 {fill:#FFA631}
   ]]>
  </style>
 </defs>
 <g id="Layer_x0020_1">
  <metadata id="CorelCorpID_0Corel-Layer"/>
  <g id="_2553849755888">
   <polygon class="fil0" points="233.59,63.1 214.12,73.62 194.66,84.13 175.19,73.62 155.73,63.1 136.26,52.58 116.79,42.07 97.33,52.58 77.86,63.1 58.4,73.62 38.93,84.13 19.47,73.62 -0,63.1 19.47,52.58 38.93,42.07 58.4,31.55 77.86,21.03 97.33,10.52 116.79,-0 136.26,10.52 155.73,21.03 175.19,31.55 194.66,42.07 214.12,52.58 "/>
   <polygon class="fil1" points="38.93,84.13 19.47,73.62 -0,63.1 -0,105.17 -0,147.23 -0,189.3 19.47,199.82 38.93,210.33 58.4,220.85 77.86,231.37 97.33,241.88 116.79,252.4 136.26,241.88 155.73,231.37 175.19,220.85 194.66,210.33 214.12,199.82 233.59,189.3 233.52,147.97 214.05,158.49 194.59,169.01 175.12,179.52 155.66,190.04 136.19,200.56 116.73,211.07 116.73,169.01 136.19,158.49 155.66,147.97 175.12,137.46 233.59,104.42 233.59,63.1 214.12,73.62 194.66,84.13 175.19,94.65 155.73,105.17 136.26,115.68 116.79,126.2 97.33,115.68 77.86,105.17 58.4,94.65 "/>
  </g>
 </g>
</svg>
