<?xml version="1.0" encoding="UTF-8"?>
<!DOCTYPE svg PUBLIC "-//W3C//DTD SVG 1.1//EN" "http://www.w3.org/Graphics/SVG/1.1/DTD/svg11.dtd">
<!-- Creator: CorelDRAW 2020 (64-Bit) -->
<svg xmlns="http://www.w3.org/2000/svg" xml:space="preserve" width="41.181mm" height="10.1705mm" version="1.1" style="shape-rendering:geometricPrecision; text-rendering:geometricPrecision; image-rendering:optimizeQuality; fill-rule:evenodd; clip-rule:evenodd"
viewBox="0 0 178.51 44.09"
 xmlns:xlink="http://www.w3.org/1999/xlink"
 xmlns:xodm="http://www.corel.com/coreldraw/odm/2003">
 <defs>
  <style type="text/css">
   <![CDATA[
    .fil1 {fill:#EC8500}
    .fil2 {fill:#FFA631}
    .fil0 {fill:#341670;fill-rule:nonzero}
   ]]>
  </style>
 </defs>
 <g id="Layer_x0020_1">
  <metadata id="CorelCorpID_0Corel-Layer"/>
  <g id="_2555429395520">
   <path class="fil0" d="M53.23 25.83l0 -12.37 2.55 0 0 12.35c0,0.63 0.23,1.16 0.69,1.61 0.46,0.44 1.01,0.66 1.66,0.66l4.21 0c0.64,0 1.19,-0.22 1.66,-0.66 0.46,-0.45 0.69,-0.98 0.69,-1.61l0 -12.35 2.53 0 0 12.37c0,1.32 -0.48,2.45 -1.43,3.39 -0.96,0.94 -2.11,1.4 -3.45,1.4l-4.21 0c-1.35,0 -2.5,-0.47 -3.46,-1.4 -0.95,-0.94 -1.43,-2.07 -1.43,-3.39zm16.87 4.79l0 -9.01c0,-0.96 0.35,-1.79 1.05,-2.47 0.7,-0.68 1.55,-1.03 2.54,-1.03l2.78 0 0 2.53 -2.78 0c-0.29,0 -0.54,0.1 -0.75,0.3 -0.2,0.2 -0.3,0.44 -0.3,0.72l0 8.96 -2.55 0zm8.55 -2.55l0 -14.62 2.55 0 0 14.62 4.43 0c0.54,0 1.01,-0.19 1.39,-0.57 0.38,-0.38 0.57,-0.85 0.57,-1.4l0 -3.45c0,-0.54 -0.19,-1.01 -0.58,-1.4 -0.39,-0.39 -0.85,-0.58 -1.39,-0.58l-2.98 0 0 -2.55 2.98 0c1.24,0 2.3,0.44 3.18,1.33 0.89,0.89 1.33,1.95 1.33,3.18l0 3.5c0,1.24 -0.44,2.3 -1.32,3.18 -0.88,0.88 -1.95,1.31 -3.19,1.31l-4.43 0c-0.7,0 -1.3,-0.25 -1.8,-0.75 -0.5,-0.5 -0.75,-1.1 -0.75,-1.8zm14.27 -1.97l0 -3.5c0,-1.24 0.44,-2.3 1.32,-3.18 0.88,-0.88 1.94,-1.31 3.19,-1.31l6.97 0 0 12.5 -2.55 0 0 -9.96 -4.43 0c-0.55,0 -1.01,0.19 -1.39,0.57 -0.38,0.38 -0.58,0.85 -0.58,1.39l0 3.45c0,0.55 0.19,1.02 0.58,1.41 0.39,0.39 0.85,0.59 1.39,0.59l2.98 0 0 2.55 -2.98 0c-1.24,0 -2.3,-0.44 -3.18,-1.33 -0.89,-0.89 -1.33,-1.95 -1.33,-3.19zm14.39 4.52l0 -9.97c0,-0.7 0.25,-1.3 0.75,-1.79 0.5,-0.49 1.11,-0.74 1.82,-0.74l4.4 0c1.24,0 2.3,0.44 3.18,1.33 0.89,0.89 1.33,1.95 1.33,3.18l0 7.99 -2.55 0 0 -7.96c0,-0.56 -0.19,-1.04 -0.57,-1.43 -0.38,-0.4 -0.84,-0.59 -1.39,-0.59l-4.43 0 0 9.98 -2.55 0zm14.39 -4.74l0 -7.59c0,-1.33 0.48,-2.48 1.43,-3.42 0.96,-0.94 2.11,-1.41 3.46,-1.41l8.99 0 0 2.53 -8.99 0c-0.65,0 -1.21,0.22 -1.66,0.67 -0.46,0.44 -0.69,0.99 -0.69,1.62l0 7.56c0,0.62 0.23,1.15 0.69,1.58 0.46,0.43 1.01,0.65 1.66,0.65l8.99 0 0 2.55 -8.99 0c-1.35,0 -2.5,-0.46 -3.46,-1.39 -0.96,-0.93 -1.43,-2.04 -1.43,-3.35zm16.67 0.23l0 -7.99 2.55 0 0 7.96c0,0.56 0.19,1.04 0.57,1.43 0.38,0.4 0.85,0.59 1.39,0.59l4.43 0 0 -9.98 2.55 0 0 9.97c0,0.7 -0.25,1.3 -0.75,1.79 -0.51,0.49 -1.11,0.74 -1.82,0.74l-4.41 0c-1.24,0 -2.3,-0.44 -3.18,-1.33 -0.89,-0.89 -1.33,-1.95 -1.33,-3.19zm14.26 1.97l0 -14.62 2.55 0 0 14.62 4.43 0c0.54,0 1.01,-0.19 1.39,-0.57 0.38,-0.38 0.57,-0.85 0.57,-1.4l0 -3.45c0,-0.54 -0.19,-1.01 -0.58,-1.4 -0.39,-0.39 -0.85,-0.58 -1.39,-0.58l-2.98 0 0 -2.55 2.98 0c1.24,0 2.3,0.44 3.18,1.33 0.89,0.89 1.33,1.95 1.33,3.18l0 3.5c0,1.24 -0.44,2.3 -1.32,3.18 -0.88,0.88 -1.95,1.31 -3.19,1.31l-4.43 0c-0.7,0 -1.3,-0.25 -1.8,-0.75 -0.5,-0.5 -0.75,-1.1 -0.75,-1.8zm14.39 -0.98l0 -6.4c0,-0.72 0.26,-1.33 0.78,-1.83 0.52,-0.5 1.15,-0.75 1.88,-0.75l5.22 0c1,0 1.85,0.35 2.55,1.06 0.7,0.71 1.06,1.57 1.06,2.57l0 0.35c0,0.99 -0.35,1.83 -1.06,2.54 -0.7,0.7 -1.55,1.06 -2.55,1.06l-3.89 0 0 -2.54 3.91 0c0.29,0 0.54,-0.1 0.74,-0.31 0.21,-0.21 0.31,-0.46 0.31,-0.76l0 -0.34c0,-0.3 -0.1,-0.56 -0.31,-0.77 -0.21,-0.21 -0.45,-0.32 -0.74,-0.32l-5.36 0 0 6.42c0,0.27 0.09,0.51 0.28,0.7 0.19,0.19 0.41,0.29 0.68,0.29l7.11 0 0 2.55 -7.11 0c-0.96,0 -1.79,-0.35 -2.47,-1.03 -0.68,-0.69 -1.03,-1.52 -1.03,-2.49z"/>
   <polygon class="fil1" points="40.8,11.02 37.4,12.86 34,14.7 30.6,12.86 27.2,11.02 23.8,9.19 20.4,7.35 17,9.19 13.6,11.02 10.2,12.86 6.8,14.7 3.4,12.86 -0,11.02 3.4,9.19 6.8,7.35 10.2,5.51 13.6,3.67 17,1.84 20.4,0 23.8,1.84 27.2,3.67 30.6,5.51 34,7.35 37.4,9.19 "/>
   <polygon class="fil2" points="6.8,14.7 3.4,12.86 -0,11.02 -0,18.37 -0,25.72 -0,33.07 3.4,34.9 6.8,36.74 10.2,38.58 13.6,40.41 17,42.25 20.4,44.09 23.8,42.25 27.2,40.41 30.6,38.58 34,36.74 37.4,34.9 40.8,33.07 40.79,25.85 37.39,27.68 33.99,29.52 30.59,31.36 27.19,33.19 23.79,35.03 20.39,36.87 20.39,29.52 23.79,27.68 27.19,25.85 30.59,24.01 40.8,18.24 40.8,11.02 37.4,12.86 34,14.7 30.6,16.53 27.2,18.37 23.8,20.21 20.4,22.04 17,20.21 13.6,18.37 10.2,16.53 "/>
  </g>
 </g>
</svg>
